#N canvas 246 39 839 591 12;
#X obj 56 437 circle 0.1;
#X obj 85 541 text2d \$1;
#X obj 200 10 inlet;
#X obj 274 185 / 320;
#X obj 323 186 / 212;
#X msg 66 139 1;
#X obj 31 77 loadbang;
#X msg 31 99 0;
#X obj 45 319 translateXYZ -10 -10 0;
#X obj 35 214 gemhead -1;
#X obj 273 100 unpack f f f;
#X obj 36 249 color 0 1 0;
#X obj 66 374 loadbang;
#X msg 65 404 draw line;
#X obj 706 40 inlet;
#X obj 85 512 spigot;
#X obj 280 473 loadbang;
#X msg 280 495 10;
#X obj 274 229 - 4;
#X obj 323 230 + 3;
#X obj 323 208 * -6;
#X obj 274 207 * 8;
#X obj 389 190 * 4;
#X obj 389 215 / 320;
#X obj 391 241 * 2;
#X obj 110 78 r reset;
#X obj 108 104 t b b;
#X msg 153 196 -10;
#X obj 404 71 r dimensions;
#X obj 405 98 unpack;
#X obj 200 36 t b a;
#X obj 37 173 spigot 1;
#X obj 15 18 r vis-circles;
#X obj 15 44 t f f;
#X obj 404 122 t f f;
#X connect 0 0 15 0;
#X connect 2 0 30 0;
#X connect 3 0 21 0;
#X connect 4 0 20 0;
#X connect 5 0 31 0;
#X connect 6 0 7 0;
#X connect 7 0 31 0;
#X connect 8 0 0 0;
#X connect 9 0 11 0;
#X connect 10 0 3 0;
#X connect 10 1 4 0;
#X connect 10 2 22 0;
#X connect 11 0 8 0;
#X connect 12 0 13 0;
#X connect 13 0 0 0;
#X connect 14 0 15 1;
#X connect 15 0 1 0;
#X connect 16 0 17 0;
#X connect 17 0 1 1;
#X connect 18 0 8 1;
#X connect 19 0 8 2;
#X connect 20 0 19 0;
#X connect 21 0 18 0;
#X connect 22 0 23 0;
#X connect 23 0 24 0;
#X connect 24 0 0 1;
#X connect 25 0 26 0;
#X connect 26 0 7 0;
#X connect 26 1 27 0;
#X connect 27 0 8 1;
#X connect 27 0 8 2;
#X connect 28 0 29 0;
#X connect 29 0 34 0;
#X connect 29 1 4 1;
#X connect 30 0 5 0;
#X connect 30 1 10 0;
#X connect 31 0 9 0;
#X connect 32 0 33 0;
#X connect 33 0 9 0;
#X connect 33 1 31 1;
#X connect 34 0 3 1;
#X connect 34 1 23 1;
