#N canvas 823 0 457 511 10;
#X declare -path purest_json -path ggee -path ./lib -lib timbreIDLib
;
#N canvas 247 249 837 438 netsend 0;
#X msg 624 61 connect localhost 3004;
#X obj 496 384 netsend;
#X msg 490 66 send gemwin \$1;
#X obj 624 41 r connect;
#X obj 202 31 r play;
#X obj 202 55 metro 80;
#X obj 264 151 array size;
#X obj 201 82 t b b;
#X obj 320 331 r index;
#X obj 490 42 r render;
#X obj 263 19 r fps;
#N canvas 138 142 666 432 choose_type 0;
#X obj 82 49 f;
#X obj 144 17 r choose_type;
#X obj 383 156 list append \$0-lin \$0-rev \$0-scr;
#X obj 383 178 list split 1;
#X obj 415 200 list split 1;
#X obj 383 132 t b f;
#X obj 383 34 r lin_rev_scr;
#X obj 518 35 r fields;
#X msg 518 210 symbol field-\$1;
#X obj 415 222 symbol;
#X msg 435 340 \; lin_rev_scr-set 0;
#X obj 75 183 list append \$0-union \$0-inter;
#X obj 76 155 t b f;
#X obj 91 207 list split 1;
#X obj 123 229 list split 1;
#X obj 123 251 symbol;
#X obj 262 150 t b;
#X obj 82 20 inlet;
#X obj 269 378 outlet;
#X obj 82 71 moses 2;
#X obj 435 268 symbol empty;
#X obj 435 290 sel empty;
#X obj 265 130 bng 15 250 50 0 empty empty empty 17 7 0 10 -262144
-1 -1;
#X connect 0 0 19 0;
#X connect 1 0 0 1;
#X connect 2 0 3 0;
#X connect 3 1 4 0;
#X connect 4 0 9 0;
#X connect 5 0 2 0;
#X connect 5 1 3 1;
#X connect 6 0 5 0;
#X connect 7 0 8 0;
#X connect 8 0 20 0;
#X connect 9 0 20 0;
#X connect 11 0 13 0;
#X connect 12 0 11 0;
#X connect 12 1 13 1;
#X connect 13 1 14 0;
#X connect 14 0 15 0;
#X connect 15 0 18 0;
#X connect 16 0 20 0;
#X connect 17 0 0 0;
#X connect 19 0 12 0;
#X connect 19 1 16 0;
#X connect 20 0 21 0;
#X connect 21 0 10 0;
#X connect 21 1 18 0;
#X restore 264 97 pd choose_type;
#X msg 526 145 0 \, destroy \, create \, 1;
#X obj 526 167 list prepend send gemwin;
#X obj 526 189 list trim;
#X obj 201 198 f;
#X obj 201 220 + 1;
#X obj 233 198 mod;
#X obj 308 245 array get \$0-lin 0 1;
#X obj 264 124 t b a a a;
#X obj 368 153 s sort_array;
#X obj 337 26 loadbang;
#X obj 265 62 /;
#X msg 265 40 1000 \$1;
#X msg 337 48 \; fps-set 8;
#X obj 306 219 s index_timeline-set;
#X obj 233 220 t f f f;
#X obj 248 174 t f f;
#X msg 282 196 range 0 \$1;
#X obj 151 118 r reset_index;
#X msg 151 140 0;
#X obj 496 406 print netsend_image;
#X obj 100 197 r randomize;
#X obj 99 222 t f f;
#X obj 99 246 ==;
#X obj 149 281 spigot;
#X obj 51 280 spigot 1;
#X obj 149 332 random;
#X obj 142 250 t f b;
#X msg 634 235 0;
#X obj 617 268 spigot;
#X msg 685 247 1;
#X msg 309 354 send index \$1 \; index-set set \$1 \;;
#X obj 309 309 t f f;
#X obj 619 354 s to_audio;
#X obj 698 154 r to_audio;
#X obj 654 88 r disconnect;
#X msg 654 110 disconnect;
#X floatatom 425 322 5 0 0 0 - - -;
#X floatatom 329 271 5 0 0 0 - - -;
#X obj 625 216 route begin_parse end_parse;
#X obj 627 312 list prepend index;
#X obj 700 173 list trim;
#X connect 0 0 1 0;
#X connect 1 0 31 0;
#X connect 2 0 1 0;
#X connect 3 0 0 0;
#X connect 4 0 5 0;
#X connect 5 0 7 0;
#X connect 6 0 27 0;
#X connect 7 0 15 0;
#X connect 7 1 11 0;
#X connect 8 0 42 0;
#X connect 8 0 48 0;
#X connect 9 0 2 0;
#X connect 10 0 23 0;
#X connect 11 0 19 0;
#X connect 12 0 13 0;
#X connect 13 0 14 0;
#X connect 14 0 1 0;
#X connect 15 0 16 0;
#X connect 16 0 17 0;
#X connect 17 0 26 0;
#X connect 18 0 43 0;
#X connect 18 0 49 0;
#X connect 19 0 6 0;
#X connect 19 1 6 1;
#X connect 19 2 18 2;
#X connect 19 3 20 0;
#X connect 21 0 24 0;
#X connect 22 0 5 1;
#X connect 23 0 22 0;
#X connect 26 0 15 1;
#X connect 26 1 38 0;
#X connect 26 2 25 0;
#X connect 27 0 17 1;
#X connect 27 1 28 0;
#X connect 27 1 37 1;
#X connect 28 0 25 0;
#X connect 29 0 30 0;
#X connect 30 0 15 1;
#X connect 32 0 33 0;
#X connect 33 0 34 0;
#X connect 33 1 35 1;
#X connect 34 0 36 1;
#X connect 35 0 37 0;
#X connect 36 0 18 0;
#X connect 37 0 18 0;
#X connect 38 0 36 0;
#X connect 38 1 35 0;
#X connect 39 0 40 1;
#X connect 40 0 51 0;
#X connect 41 0 40 1;
#X connect 42 0 1 0;
#X connect 43 0 42 0;
#X connect 43 1 40 0;
#X connect 45 0 52 0;
#X connect 46 0 47 0;
#X connect 47 0 1 0;
#X connect 50 0 39 0;
#X connect 50 1 41 0;
#X connect 51 0 44 0;
#X connect 52 0 50 0;
#X restore 33 225 pd netsend to display;
#X text 174 226 <-- connect and play images in display;
#N canvas 311 171 638 401 parameters 0;
#X obj 441 209 r params;
#X obj 441 231 route write;
#X obj 441 253 print written;
#N canvas 0 22 450 300 check_filename 0;
#X obj 72 216 symbol;
#X obj 105 193 t a a;
#X obj 72 43 t b b;
#X obj 105 137 sel symbol;
#X msg 105 159 symbol no_name_given;
#X obj 72 15 inlet;
#X obj 72 258 outlet;
#X obj 105 112 r write_parameter_filename;
#X obj 132 217 print write_parameter_filename;
#X msg 99 72 \; write_parameter_filename-set bang;
#X connect 0 0 6 0;
#X connect 1 0 0 1;
#X connect 1 1 8 0;
#X connect 2 0 0 0;
#X connect 2 1 9 0;
#X connect 3 0 4 0;
#X connect 3 1 1 0;
#X connect 4 0 1 0;
#X connect 5 0 2 0;
#X connect 7 0 3 0;
#X restore 36 115 pd check_filename;
#X obj 49 298 loadbang;
#X obj 40 277 r default;
#N canvas 0 22 741 381 sliders 0;
#X obj 38 27 r thres_R;
#X obj 37 106 r thres_G;
#X obj 38 182 r thres_B;
#X obj 36 258 r thres_C;
#X msg 36 300 \; params add thres_C \$1;
#X msg 38 224 \; params add thres_B \$1;
#X msg 38 69 \; params add thres_R \$1;
#X obj 191 26 r brightness;
#X msg 191 68 \; params add brightness \$1;
#X obj 190 105 r bodies;
#X msg 190 147 \; params add bodies \$1;
#X obj 191 181 r faces;
#X msg 191 223 \; params add faces \$1;
#X obj 189 257 r smoothness;
#X msg 189 299 \; params add smoothness \$1;
#X obj 360 24 r cutness;
#X msg 360 66 \; params add cutness \$1;
#X obj 359 103 r blobiness;
#X msg 359 145 \; params add blobiness \$1;
#X obj 360 179 r skewness;
#X msg 360 221 \; params add skewness \$1;
#X obj 358 255 r boundedness;
#X msg 358 297 \; params add boundedness \$1;
#X obj 520 26 r kontrastedness;
#X msg 520 68 \; params add kontrastedness \$1;
#X obj 38 48 / 127;
#X obj 191 47 / 127;
#X obj 360 45 / 127;
#X obj 37 127 / 127;
#X obj 190 126 / 127;
#X obj 359 124 / 127;
#X obj 38 203 / 127;
#X obj 191 202 / 127;
#X obj 360 200 / 127;
#X obj 36 279 / 127;
#X obj 189 278 / 127;
#X obj 358 276 / 127;
#X obj 520 47 / 127;
#X msg 37 148 \; params add thres_G \$1;
#X msg 532 145 \; thres_R-set \$1 \; thres_G-set \$1 \; thres_B-set
\$1 \; thres_C-set \$1 \; brightness-set \$1 \; bodies-set \$1 \; faces-set
\$1 \; smoothness-set \$1 \; cutness-set \$1 \; blobiness-set \$1 \;
skewness-set \$1 \; boundedness-set \$1 \; kontrastedness-set \$1 \;
;
#X obj 534 122 r global;
#X connect 0 0 25 0;
#X connect 1 0 28 0;
#X connect 2 0 31 0;
#X connect 3 0 34 0;
#X connect 7 0 26 0;
#X connect 9 0 29 0;
#X connect 11 0 32 0;
#X connect 13 0 35 0;
#X connect 15 0 27 0;
#X connect 17 0 30 0;
#X connect 19 0 33 0;
#X connect 21 0 36 0;
#X connect 23 0 37 0;
#X connect 25 0 6 0;
#X connect 26 0 8 0;
#X connect 27 0 16 0;
#X connect 28 0 38 0;
#X connect 29 0 10 0;
#X connect 30 0 18 0;
#X connect 31 0 5 0;
#X connect 32 0 12 0;
#X connect 33 0 20 0;
#X connect 34 0 4 0;
#X connect 35 0 14 0;
#X connect 36 0 22 0;
#X connect 37 0 24 0;
#X connect 40 0 39 0;
#X restore 35 30 pd sliders;
#N canvas 0 22 707 396 toggles 0;
#X obj 40 30 r thres_R-bool;
#X obj 193 29 r brightness-bool;
#X obj 362 27 r cutness-bool;
#X obj 39 109 r thres_G-bool;
#X obj 192 108 r bodies-bool;
#X obj 361 106 r blobiness-bool;
#X obj 40 185 r thres_B-bool;
#X obj 193 184 r faces-bool;
#X obj 362 182 r skewness-bool;
#X obj 38 261 r thres_C-bool;
#X obj 191 260 r smoothness-bool;
#X obj 360 258 r boundedness-bool;
#X obj 525 30 r kontrastedness-bool;
#X msg 40 72 \; thres_R-set \$1;
#X msg 193 72 \; brightness-set \$1;
#X msg 362 69 \; cutness-set \$1;
#X msg 39 151 \; thres_G-set \$1;
#X msg 192 150 \; bodies-set \$1;
#X msg 361 148 \; blobiness-set \$1;
#X msg 40 227 \; thres_B-set \$1;
#X msg 193 226 \; faces-set \$1;
#X msg 362 224 \; skewness-set \$1;
#X msg 38 303 \; thres_C-set \$1;
#X msg 191 302 \; smoothness-set \$1;
#X msg 360 300 \; boundedness-set \$1;
#X msg 525 72 \; kontrastedness-set \$1;
#X obj 40 51 * 127;
#X obj 193 50 * 127;
#X obj 362 48 * 127;
#X obj 361 127 * 127;
#X obj 192 129 * 127;
#X obj 39 130 * 127;
#X obj 40 206 * 127;
#X obj 193 205 * 127;
#X obj 362 203 * 127;
#X obj 360 279 * 127;
#X obj 191 281 * 127;
#X obj 38 282 * 127;
#X obj 525 51 * 127;
#X obj 526 124 r global-bool;
#X obj 526 146 * 127;
#X msg 526 168 \; global-set \$1;
#X connect 0 0 26 0;
#X connect 1 0 27 0;
#X connect 2 0 28 0;
#X connect 3 0 31 0;
#X connect 4 0 30 0;
#X connect 5 0 29 0;
#X connect 6 0 32 0;
#X connect 7 0 33 0;
#X connect 8 0 34 0;
#X connect 9 0 37 0;
#X connect 10 0 36 0;
#X connect 11 0 35 0;
#X connect 12 0 38 0;
#X connect 26 0 13 0;
#X connect 27 0 14 0;
#X connect 28 0 15 0;
#X connect 29 0 18 0;
#X connect 30 0 17 0;
#X connect 31 0 16 0;
#X connect 32 0 19 0;
#X connect 33 0 20 0;
#X connect 34 0 21 0;
#X connect 35 0 24 0;
#X connect 36 0 23 0;
#X connect 37 0 22 0;
#X connect 38 0 25 0;
#X connect 39 0 40 0;
#X connect 40 0 41 0;
#X restore 35 55 pd toggles;
#X obj 457 65 purest_json/json-encode;
#X obj 457 32 r params;
#X text 262 64 parameters are stored here -->;
#X text 322 123 ...and read here -->;
#X text 378 184 reports params file written to disk;
#X text 106 45 gui glue;
#X obj 36 87 r write_param_file;
#N canvas 587 208 674 570 read_parameter_file 0;
#X obj 42 148 purest_json/json-encode;
#X obj 42 180 purest_json/json-decode;
#X msg 42 126 read \$1 \, bang;
#X obj 44 34 r read_parameter_file;
#X obj 235 50 openpanel;
#X obj 230 104 s read_parameter_file-set;
#X obj 232 77 t a a;
#X obj 249 151 ggee/shell;
#X obj 250 217 s write_parameter_filename-set;
#X msg 244 131 /usr/bin/basename \$1 .json;
#X obj 250 173 symbol;
#X obj 236 29 r load_params;
#X obj 250 193 _list-strip 6;
#X obj 42 202 list trim;
#X obj 42 252 route imgX imgY maxKeyPoints maxSkewAngle;
#X obj 306 308 list;
#X obj 306 330 t a a;
#X obj 306 352 list split 1;
#X obj 387 352 list split 1;
#X obj 343 373 * 127;
#X obj 386 374 makefilename %s-set;
#X obj 343 395 s;
#X obj 49 317 list;
#X obj 49 339 list;
#X obj 49 361 list;
#X obj 49 383 list;
#X msg 49 407 \; imgX-set \$1 \; imgY-set \$2 \; maxKeyPoints-set \$3
\; maxSkewAngle-set \$4 \;;
#X connect 0 0 1 0;
#X connect 1 0 13 0;
#X connect 1 1 22 0;
#X connect 2 0 0 0;
#X connect 3 0 2 0;
#X connect 4 0 6 0;
#X connect 6 0 5 0;
#X connect 6 1 9 0;
#X connect 7 0 10 0;
#X connect 9 0 7 0;
#X connect 10 0 12 0;
#X connect 11 0 4 0;
#X connect 12 0 8 0;
#X connect 13 0 14 0;
#X connect 14 0 22 1;
#X connect 14 1 23 1;
#X connect 14 2 24 1;
#X connect 14 3 25 1;
#X connect 14 4 15 0;
#X connect 15 0 16 0;
#X connect 16 0 17 0;
#X connect 16 1 18 0;
#X connect 17 1 19 0;
#X connect 18 0 20 0;
#X connect 19 0 21 0;
#X connect 20 0 21 1;
#X connect 22 0 23 0;
#X connect 23 0 24 0;
#X connect 24 0 25 0;
#X connect 25 0 26 0;
#X restore 457 123 pd read_parameter_file;
#X msg 40 322 \; source_dataset_basename-set symbol images \; read_parameter_file-set
symbol ../src/default_parameters.json, f 61;
#N canvas 154 40 368 502 read_results_file 0;
#X obj 59 84 openpanel;
#X obj 31 25 r load_results;
#X obj 59 439 s read_results_file-set;
#X obj 82 158 ggee/shell;
#X msg 73 134 /usr/bin/basename \$1 .json;
#X obj 83 180 symbol;
#X obj 59 109 t a a a;
#X msg 188 185 /usr/bin/dirname \$1;
#X obj 188 207 ggee/shell;
#X obj 188 229 symbol;
#X obj 104 262 list prepend;
#X msg 106 315 symbol \$1/\$2.json;
#X obj 102 337 s read_parameter_file-set;
#X obj 81 232 t a a;
#X obj 77 392 s write_parameter_filename-set;
#X obj 80 205 _list-strip 8;
#X obj 81 363 _list-strip 15;
#X connect 0 0 6 0;
#X connect 1 0 0 0;
#X connect 3 0 5 0;
#X connect 4 0 3 0;
#X connect 5 0 15 0;
#X connect 6 0 2 0;
#X connect 6 1 4 0;
#X connect 6 2 7 0;
#X connect 7 0 8 0;
#X connect 8 0 9 0;
#X connect 9 0 10 1;
#X connect 10 0 11 0;
#X connect 11 0 12 0;
#X connect 13 0 16 0;
#X connect 13 1 10 0;
#X connect 15 0 13 0;
#X connect 16 0 14 0;
#X restore 458 150 pd read_results_file;
#X obj 457 87 s parameter_string;
#X msg 36 146 \; params write ../queries/\$1-matching_query.json;
#N canvas 50 287 450 300 global_params-gui 0;
#X obj 124 19 r imgX;
#X obj 170 19 r imgY;
#X obj 215 20 r maxKeyPoints;
#X obj 318 20 r maxSkewAngle;
#X msg 33 187 \; imgX-set 320 \; imgY-set 212 \; maxKeyPoints-set 250
\; maxSkewAngle-set -90 \;;
#X obj 33 160 loadbang;
#X obj 55 83 pack f f f f;
#X obj 54 58 f;
#X obj 15 24 r send_globals;
#X msg 211 75 \; params add imgX \$1 \; params add imgY \$2 \; params
add maxKeyPoints \$3 \; params add maxSkewAngle \$4;
#X connect 0 0 7 1;
#X connect 1 0 6 1;
#X connect 2 0 6 2;
#X connect 3 0 6 3;
#X connect 5 0 4 0;
#X connect 6 0 9 0;
#X connect 7 0 6 0;
#X connect 8 0 7 0;
#X restore 269 13 pd global_params-gui;
#X obj 35 199 r make_the_query;
#X msg 35 221 \; send_globals bang \; params bang \;;
#N canvas 0 22 450 300 old_query 0;
#X obj 30 38 ggee/getdir;
#X obj 30 86 list;
#X obj 30 123 list append images;
#X obj 30 194 t a a;
#X obj 30 244 ggee/shell;
#X obj 223 259 sel;
#X obj 270 279 print query;
#X msg 270 252 error \$1;
#X obj 135 102 r source_dataset_basename;
#X obj 52 63 r write_parameter_filename;
#X obj 57 221 print make_the_query;
#X obj 198 283 s done-set;
#X obj 30 304 route read;
#X obj 335 362 print;
#X obj 30 330 symbol;
#X msg 30 356 \; read_results_file-set symbol \$1;
#X msg 30 150 /usr/bin/python \$1/../src/matching_query.py \$1/../txt/\$3-entries.txt
\$1/../data/\$3-data.json \$1/../data/audio-data.json \$1/../queries/\$2-matching_query.json
\$1/../data/colorwords.json, f 68;
#X text 153 33 python call from shell: file "query.py";
#X connect 0 0 1 0;
#X connect 1 0 2 0;
#X connect 2 0 16 0;
#X connect 3 0 4 0;
#X connect 3 1 10 0;
#X connect 4 0 12 0;
#X connect 4 1 5 0;
#X connect 5 0 11 0;
#X connect 5 1 7 0;
#X connect 7 0 6 0;
#X connect 8 0 2 1;
#X connect 9 0 1 1;
#X connect 12 0 14 0;
#X connect 12 1 13 0;
#X connect 14 0 15 0;
#X connect 16 0 3 0;
#X restore 506 290 pd old_query;
#X connect 0 0 1 0;
#X connect 1 0 2 0;
#X connect 3 0 19 0;
#X connect 4 0 16 0;
#X connect 5 0 16 0;
#X connect 8 0 18 0;
#X connect 9 0 8 0;
#X connect 14 0 3 0;
#X connect 21 0 22 0;
#X restore 36 104 pd parameters;
#X text 127 104 <-- write/read parameters to/from json file;
#N canvas 247 58 442 300 sorted 0;
#X obj 24 71 text define \$0-sorted;
#X msg 24 45 read -c ../txt/images-sorted.txt \, bang;
#N canvas 0 22 450 300 sorted_arrays 0;
#X obj 10 10 clone _sort_to_array 12 field;
#X restore 286 80 pd sorted_arrays;
#X obj 43 127 text size -s text t;
#X obj 24 221 s _sort_to_array;
#X obj 24 93 t p b p;
#X msg 43 152 \; pd-sorted_arrays clear \, obj 10 10 clone _sort_to_array
\$1 field, f 23;
#N canvas 692 161 393 376 lin_rev_scr 0;
#X obj 240 23 array define \$0-lin;
#X obj 240 48 array define \$0-scr;
#X obj 240 73 array define \$0-rev;
#X obj 180 262 array size;
#X obj 153 218 f;
#X obj 153 131 symbol;
#X msg 153 175 symbol \$2-\$1;
#X obj 153 80 t b f;
#X obj 153 240 t f f;
#X obj 153 153 list append \$0;
#X msg 153 106 lin \, scr \, rev;
#X obj 36 65 t b f;
#X msg 36 125 scramble \$1-scr \, reverse \$1-rev, f 16;
#X obj 36 172 list split 1;
#X obj 36 99 f \$0;
#X msg 70 231 set \$1;
#X obj 36 200 list trim;
#X obj 36 15 r max_n_images;
#X obj 153 287 iterate;
#X obj 153 309 t f f;
#X obj 153 331 array set;
#X obj 36 268 tabletool;
#X obj 153 197 t b a a, f 25;
#X connect 4 0 8 0;
#X connect 5 0 9 0;
#X connect 6 0 22 0;
#X connect 7 0 10 0;
#X connect 7 1 4 1;
#X connect 8 0 18 0;
#X connect 8 1 3 0;
#X connect 9 0 6 0;
#X connect 10 0 5 0;
#X connect 11 0 14 0;
#X connect 11 1 7 0;
#X connect 12 0 13 0;
#X connect 13 0 16 0;
#X connect 13 1 15 0;
#X connect 14 0 12 0;
#X connect 15 0 21 0;
#X connect 16 0 21 0;
#X connect 17 0 11 0;
#X connect 18 0 19 0;
#X connect 19 0 20 0;
#X connect 19 1 20 1;
#X connect 22 0 4 0;
#X connect 22 1 3 1;
#X connect 22 2 20 2;
#X restore 286 101 pd lin_rev_scr;
#N canvas 0 22 450 300 max_n_images 0;
#X obj 42 21 r _sort_to_array;
#X msg 42 63 0;
#X obj 42 85 text get -s text t;
#X obj 42 107 list length;
#X obj 42 42 t a p;
#X obj 42 129 s max_n_images;
#X connect 0 0 4 0;
#X connect 1 0 2 0;
#X connect 2 0 3 0;
#X connect 3 0 5 0;
#X connect 4 0 1 0;
#X connect 4 1 2 3;
#X restore 284 122 pd max_n_images;
#N canvas 0 22 450 300 sort_gui 0;
#X obj 31 48 r max_n_images;
#X msg 31 70 \; timeline-set range 0 \$1;
#X obj 26 150 r bodies_and_faces;
#X msg 26 172 \; fields 7;
#X obj 166 150 r lines_and_circles;
#X msg 166 172 \; fields 9;
#X msg 26 232 \; fields 8;
#X obj 26 210 r blobs_and_keypoints;
#X obj 166 210 r line_circ_blob_keyp;
#X obj 299 146 r use_all_fields;
#X msg 299 168 \; fields 11;
#X msg 166 232 \; fields 10;
#X obj 272 13 r index-set;
#X obj 272 35 t b a;
#X msg 272 57 500;
#X msg 272 79 \; timeline-set set \$1;
#X connect 0 0 1 0;
#X connect 2 0 3 0;
#X connect 4 0 5 0;
#X connect 7 0 6 0;
#X connect 8 0 11 0;
#X connect 9 0 10 0;
#X connect 12 0 13 0;
#X connect 13 0 14 0;
#X connect 13 1 14 0;
#X connect 14 0 15 0;
#X restore 261 176 pd sort_gui;
#X obj 24 10 loadbang;
#X text 345 176 gui glue;
#X connect 0 0 5 0;
#X connect 1 0 0 0;
#X connect 3 0 6 0;
#X connect 5 0 4 0;
#X connect 5 1 3 0;
#X connect 5 2 3 1;
#X connect 10 0 1 0;
#X restore 36 156 pd sorted entries;
#X text 33 136 -----------------------------------------------------------
;
#X text 32 175 -----------------------------------------------------------
;
#X obj 36 18 declare -path purest_json -path ggee -path ./lib -lib
timbreIDLib;
#X obj 35 61 cnv 15 100 30 empty empty empty 20 12 0 14 -204786 -66577
0;
#X text 145 68 <-- open;
#N canvas 697 31 567 553 controls 1;
#N canvas 369 0 896 697 parameters 0;
#X obj 130 109 hsl 128 30 0 127 0 0 thres_R thres_R-set thres_R -2
8 0 10 -258113 -262144 -1 500 1;
#X obj 130 143 hsl 128 30 0 127 0 0 thres_G thres_G-set thres_G -2
8 0 10 -4034 -262144 -1 1300 1;
#X obj 130 177 hsl 128 30 0 127 0 0 thres_B thres_B-set thres_B -2
8 0 10 -4160 -204800 -204800 800 1;
#X obj 130 211 hsl 128 30 0 127 0 0 thres_C thres_C-set thres_C -2
8 0 10 -232576 -262144 -159808 0 1;
#X obj 130 245 hsl 128 30 0 127 0 0 brightness brightness-set brightness
-2 8 0 10 -262130 -1 -1 0 1;
#X obj 130 279 hsl 128 30 0 127 0 0 bodies bodies-set bodies -2 8 0
10 -83269 -257985 -262130 0 1;
#X obj 130 313 hsl 128 30 0 127 0 0 faces faces-set faces -2 8 0 10
-83269 -257985 -262130 0 1;
#X obj 130 347 hsl 128 30 0 127 0 0 smoothness smoothness-set smoothness
-2 8 0 10 -13330 -4032 -204800 0 1;
#X obj 130 381 hsl 128 30 0 127 0 0 cutness cutness-set cutness -2
8 0 10 -204800 -13330 -13330 0 1;
#X obj 130 415 hsl 128 30 0 127 0 0 blobiness blobiness-set blobiness
-2 8 0 10 -16662 -4032 -203904 0 1;
#X obj 130 449 hsl 128 30 0 127 0 0 skewness skewness-set skewness
-2 8 0 10 -45076 -159808 -232576 0 1;
#X obj 130 483 hsl 128 30 0 127 0 0 boundedness boundedness-set boundedness
-2 8 0 10 -86277 -258113 -261234 0 1;
#X obj 130 517 hsl 128 30 0 127 0 0 kontrastedness kontrastedness-set
kontrastedness -2 8 0 10 -86853 -260097 -261682 0 1;
#X obj 109 109 tgl 15 0 thres_R-bool thres_R-bool-set empty 17 7 0
10 -262144 -1 -1 0 1;
#X obj 109 143 tgl 15 0 thres_G-bool thres_G-bool-set empty 17 7 0
10 -262144 -1 -1 0 1;
#X obj 109 177 tgl 15 0 thres_B-bool thres_B-bool-set empty 17 7 0
10 -262144 -1 -1 0 1;
#X obj 109 211 tgl 15 0 thres_C-bool thres_C-bool-set empty 17 7 0
10 -262144 -1 -1 0 1;
#X obj 109 245 tgl 15 0 brightness-bool brightness-bool-set empty 17
7 0 10 -262144 -1 -1 0 1;
#X obj 109 279 tgl 15 0 bodies-bool bodies-bool-set empty 17 7 0 10
-262144 -1 -1 0 1;
#X obj 109 313 tgl 15 0 faces-bool faces-bool-set empty 17 7 0 10 -262144
-1 -1 0 1;
#X obj 109 347 tgl 15 0 smoothness-bool smoothness-bool-set empty 17
7 0 10 -262144 -1 -1 0 1;
#X obj 109 381 tgl 15 0 cutness-bool cutness-bool-set empty 17 7 0
10 -262144 -1 -1 0 1;
#X obj 109 415 tgl 15 0 blobiness-bool blobiness-bool-set empty 17
7 0 10 -262144 -1 -1 0 1;
#X obj 109 449 tgl 15 0 skewness-bool skewness-bool-set empty 17 7
0 10 -262144 -1 -1 0 1;
#X obj 109 483 tgl 15 0 boundedness-bool boundedness-bool-set empty
17 7 0 10 -262144 -1 -1 0 1;
#X obj 109 517 tgl 15 0 kontrastedness-bool kontrastedness-bool-set
empty 17 7 0 10 -262144 -1 -1 0 1;
#X obj 130 551 hsl 128 10 0 127 0 0 global global-set global -2 5 0
10 -262144 -1 -1 0 1;
#X obj 114 551 tgl 10 0 global-bool global-bool-set empty 17 7 0 10
-262144 -1 -1 0 1;
#X obj 265 110 nbx 5 14 -1e+37 1e+37 0 0 empty thres_R empty 0 -8 0
10 -262144 -1 -1 5 256;
#X obj 265 144 nbx 5 14 -1e+37 1e+37 0 0 empty thres_G empty 0 -8 0
10 -262144 -1 -1 13 256;
#X obj 265 178 nbx 5 14 -1e+37 1e+37 0 0 empty thres_B empty 0 -8 0
10 -262144 -1 -1 8 256;
#X obj 265 212 nbx 5 14 -1e+37 1e+37 0 0 empty thres_C empty 0 -8 0
10 -262144 -1 -1 0 256;
#X obj 265 246 nbx 5 14 -1e+37 1e+37 0 0 empty brightness empty 0 -8
0 10 -262144 -1 -1 0 256;
#X obj 265 280 nbx 5 14 -1e+37 1e+37 0 0 empty bodies empty 0 -8 0
10 -262144 -1 -1 0 256;
#X obj 265 314 nbx 5 14 -1e+37 1e+37 0 0 empty faces empty 0 -8 0 10
-262144 -1 -1 0 256;
#X obj 265 348 nbx 5 14 -1e+37 1e+37 0 0 empty smoothness empty 0 -8
0 10 -262144 -1 -1 0 256;
#X obj 265 382 nbx 5 14 -1e+37 1e+37 0 0 empty cutness empty 0 -8 0
10 -262144 -1 -1 0 256;
#X obj 265 416 nbx 5 14 -1e+37 1e+37 0 0 empty blobiness empty 0 -8
0 10 -262144 -1 -1 0 256;
#X obj 265 450 nbx 5 14 -1e+37 1e+37 0 0 empty skewness empty 0 -8
0 10 -262144 -1 -1 0 256;
#X obj 265 484 nbx 5 14 -1e+37 1e+37 0 0 empty boundedness empty 0
-8 0 10 -262144 -1 -1 0 256;
#X obj 265 518 nbx 5 14 -1e+37 1e+37 0 0 empty kontrastedness empty
0 -8 0 10 -262144 -1 -1 0 256;
#X obj 332 411 cnv 15 300 100 empty empty fsort_(field_sort) 10 10
0 14 -204786 -1 0;
#X obj 341 444 vradio 15 1 0 3 lin_rev_scr lin_rev_scr-set lin_rev_scr
0 -8 0 10 -262144 -1 -1 2;
#X obj 363 461 hradio 15 1 0 7 fields fields-set fields 0 -8 0 10 -262144
-1 -1 0;
#X obj 478 417 bng 15 250 50 0 bodies_and_faces bodies_and_faces-set
bodies_and_faces 17 7 0 10 -262144 -1 -1;
#X obj 478 474 bng 15 250 50 0 line_circ_blob_keyp line_circ_blob_keyp-set
line_circ_blob_keyp 17 7 0 10 -262144 -1 -1;
#X obj 478 455 bng 15 250 50 0 lines_and_circles lines_and_circles-set
lines_and_circles 17 7 0 10 -262144 -1 -1;
#X obj 478 436 bng 15 250 50 0 blobs_and_keypoints blobs_and_keypoints-set
blobs_and_keypoints 17 7 0 10 -262144 -1 -1;
#X obj 478 493 bng 15 250 50 0 use_all_fields use_all_fields-set use_all_fields
17 7 0 10 -262144 -1 -1;
#X obj 332 515 cnv 15 300 100 empty empty display 10 10 0 14 -204800
-1 0;
#X obj 409 518 bng 15 250 50 0 connect connect-set connect 17 7 0 10
-262144 -1 -1;
#X obj 487 564 tgl 15 0 play play-set play 17 7 0 10 -262144 -1 -1
0 1;
#X obj 570 563 nbx 5 14 -1e+37 1e+37 0 0 index index-set index 0 -8
0 10 -262144 -1 -1 500 256;
#X obj 487 539 tgl 15 0 render render-set render 17 7 0 10 -262144
-1 -1 0 1;
#X obj 362 590 hsl 260 10 0 590 0 0 timeline timeline-set timeline
-2 -8 0 10 -204800 -1 -1 21949 1;
#X obj 570 532 nbx 5 14 1 100 0 0 fps fps-set fps 0 -8 0 10 -262144
-1 -1 27 256;
#X obj 332 307 cnv 15 300 100 empty empty choose_query_or_sort_type
10 10 0 14 -262130 -1 0;
#X obj 443 381 nbx 5 14 -1e+37 1e+37 0 0 \$0-inter \$0-inter-len intersections_found
0 -8 0 10 -262144 -1 -1 385 256;
#X obj 443 348 nbx 5 14 -1e+37 1e+37 0 0 \$0-union \$0-union-len unions_found
0 -8 0 10 -262144 -1 -1 468 256;
#X obj 344 339 hradio 30 1 0 3 choose_type choose_type-set union_inter_fsort
0 -8 0 10 -262144 -1 -1 1;
#X symbolatom 343 382 0 0 0 2 using: sort_array -;
#X text 507 379 <-- use few filters!;
#X obj 332 101 cnv 15 300 100 empty empty write_and_make_query 10 10
0 14 -261234 -1 0;
#X obj 344 183 bng 15 250 50 0 write_param_file write_param_file-set
write_param_file 17 7 0 10 -261234 -1 -1;
#X symbolatom 344 163 20 0 0 2 write_parameter_filename write_parameter_filename-set
write_parameter_filename;
#X obj 511 167 bng 20 250 50 0 make_the_query make_the_query-set make_the_query
24 10 0 10 -204786 -1 -1;
#X obj 537 105 bng 15 250 50 0 default default-set default_params 17
7 0 10 -262144 -1 -1;
#X symbolatom 343 134 10 0 0 2 source_dataset_basename source_dataset_basename-set
source_dataset_basename;
#X obj 677 169 bng 15 250 50 0 done done-set done 17 7 0 10 -228856
-1 -1;
#X obj 332 204 cnv 15 300 100 empty empty read_parameters_or_results_file
10 10 0 14 -261682 -1 0;
#X symbolatom 343 237 30 0 0 2 read_parameter_file read_parameter_file-set
read_parameter_file;
#X obj 531 241 bng 10 250 50 0 load_params load_params-set load_params
13 5 0 10 -203904 -1 -1;
#X symbolatom 342 269 30 0 0 2 read_results_file read_results_file-set
read_results_file;
#X obj 530 273 bng 10 250 50 0 load_results load_results-set load_results
13 5 0 10 -203904 -1 -1;
#X obj 362 604 hsl 260 8 0 385 0 0 index_timeline index_timeline-set
empty -2 -8 0 10 -204800 -1 -1 13925 1;
#X obj 340 592 bng 15 250 50 0 reset_index reset_index-set empty 17
7 0 10 -261682 -1 -1;
#X obj 527 564 tgl 15 0 randomize randomize-set rand 17 7 0 10 -262144
-1 -1 1 1;
#X obj 427 544 bng 10 250 50 0 kill_display kill_display-set kill_display
14 5 0 8 -261234 -1 -1;
#X obj 344 541 bng 15 250 50 0 start_display start_display-set start_display
17 7 0 10 -262144 -1 -1;
#X obj 427 562 bng 10 250 50 0 kill_audio kill_audio-set kill_audio
14 5 0 8 -261234 -1 -1;
#X obj 344 561 bng 15 250 50 0 start_audio start_audio-set start_audio
17 7 0 10 -262144 -1 -1;
#X obj 136 582 nbx 4 14 0 1e+37 0 0 imgX imgX-set imgX 0 -8 0 10 -262144
-1 -1 320 256;
#X obj 136 613 nbx 4 14 0 1e+37 0 0 imgY imgY-set imgY 0 -8 0 10 -262144
-1 -1 212 256;
#X obj 187 613 nbx 4 14 0 1e+37 0 0 maxKeyPoints maxKeyPoints-set maxKeyPoints
0 -8 0 10 -262144 -1 -1 250 256;
#X obj 187 582 nbx 4 14 -180 180 0 0 maxSkewAngle maxSkewAngle-set
maxSkewAngle 0 -8 0 10 -262144 -1 -1 -90 256;
#X obj 518 122 bng 15 250 50 0 connect_live_query connect_live_query-set
connect_live_query 17 7 0 10 -262144 -1 -1;
#X obj 550 143 bng 10 250 50 0 disconnect_live_query disconnect_live_query-set
disconnect 10 5 0 8 -261234 -1 -1;
#X obj 489 140 nbx 5 14 5010 1e+37 0 0 port port-set port 0 -8 0 10
-262144 -1 -1 5010 256;
#X obj 470 519 bng 10 250 50 0 disconnect disconnect-set disconnect
14 5 0 8 -261234 -1 -1;
#X coords 0 -1 1 1 533 530 2 100 100;
#X restore 19 15 pd parameters;
#X restore 43 68 pd controls;
#N canvas 567 36 521 379 netsend 0;
#X obj 29 30 r connect;
#X msg 29 52 connect localhost 5002;
#X obj 29 194 netsend;
#X obj 29 216 print netsend_audio;
#X obj 52 118 r to_audio;
#X obj 53 138 list prepend send;
#X obj 51 165 list trim;
#N canvas 0 22 450 300 test 0;
#X obj 94 64 iterate;
#X obj 94 86 list prepend append;
#X obj 94 108 list trim;
#X obj 94 130 list store;
#X obj 94 152 t a b;
#X obj 94 174 list prepend tester;
#X obj 94 196 s to_audio;
#X msg 94 42 1000;
#X connect 0 0 1 0;
#X connect 0 1 3 0;
#X connect 1 0 2 0;
#X connect 2 0 3 0;
#X connect 3 0 4 0;
#X connect 4 0 5 0;
#X connect 4 1 3 1;
#X connect 5 0 6 0;
#X connect 7 0 0 0;
#X restore 245 137 pd test connection bulk;
#X obj 247 172 r render;
#X obj 247 194 list prepend pd dsp;
#X obj 247 216 s to_audio;
#X obj 125 253 t a a;
#X obj 125 275 list split 1;
#X obj 215 270 list split 1;
#X obj 215 292 symbol;
#X obj 146 301 list trim;
#X obj 146 323 s;
#X obj 185 78 r disconnect;
#X msg 185 100 disconnect;
#X connect 0 0 1 0;
#X connect 1 0 2 0;
#X connect 2 0 3 0;
#X connect 2 1 11 0;
#X connect 4 0 5 0;
#X connect 5 0 6 0;
#X connect 6 0 2 0;
#X connect 8 0 9 0;
#X connect 9 0 10 0;
#X connect 11 0 12 0;
#X connect 11 1 13 0;
#X connect 12 1 15 0;
#X connect 13 0 14 0;
#X connect 14 0 16 1;
#X connect 15 0 16 0;
#X connect 17 0 18 0;
#X connect 18 0 2 0;
#X restore 35 247 pd netsend to audio;
#X text 179 246 <-- connect and play audio files;
#N canvas 298 12 731 729 live 0;
#X obj 43 216 netsend;
#X msg 64 174 disconnect;
#X msg 225 213 send \$1;
#X obj 43 285 print live_query;
#X obj 43 20 r connect_live_query;
#X obj 64 149 r disconnect_live_query;
#X obj 226 143 r parameter_string;
#X msg 297 57 \; make_the_query bang;
#X obj 43 49 list append localhost;
#X obj 179 48 r host;
#X obj 151 75 r port;
#X msg 43 107 connect \$1 \$2;
#X obj 193 20 bng 15 250 50 0 empty empty empty 17 7 0 10 -262144 -1
-1;
#X obj 234 268 sel begin end;
#X obj 245 315 timer;
#X floatatom 245 337 5 0 0 0 - - -;
#X obj 227 163 t a b;
#X obj 344 267 timer;
#X floatatom 351 337 5 0 0 0 - - -;
#X obj 273 358 +;
#X floatatom 273 380 5 0 0 0 - - -;
#X text 316 382 total time;
#X text 387 336 query time;
#X text 280 332 result time;
#X obj 143 234 route list float symbol;
#X obj 262 469 list prepend append;
#X obj 262 491 list trim;
#X obj 236 580 list store;
#X obj 236 602 t a b;
#X obj 37 332 list split 1;
#X obj 45 396 route inter union;
#X obj 150 309 list trim;
#X obj 36 624 array size;
#X obj 129 504 makefilename \$0-%s;
#X obj 129 525 t a a;
#X obj 107 633 array set;
#X obj 129 483 symbol;
#X obj 45 426 t f b;
#X msg 85 453 inter;
#X msg 129 453 union;
#X obj 85 426 t f b;
#X obj 339 562 symbol;
#X msg 340 539 image;
#X obj 236 624 list prepend;
#X msg 407 493 audio;
#X obj 236 646 list trim;
#X obj 236 668 route image audio;
#X obj 470 507 text search filenames 1;
#X obj 470 529 sel -1;
#X obj 471 548 text size filenames;
#X obj 472 569 t b f;
#X obj 471 592 random;
#X obj 471 614 t f;
#X obj 470 486 symbol;
#X obj 470 441 list split 1;
#X obj 470 463 list trim;
#X obj 253 557 t b a;
#X obj 373 627 list prepend;
#X obj 374 651 list prepend indices;
#X obj 374 673 s to_audio;
#X obj 439 414 t b a;
#X text 501 610 get file index and prepend;
#X text 450 671 indices file_index indices_list;
#X obj 502 330 s to_audio;
#X obj 467 253 list prepend begin_parse;
#X obj 451 276 list prepend end_parse;
#X obj 295 291 t b b;
#X obj 234 292 t b b b;
#X obj 118 547 t a a;
#X obj 99 573 makefilename %s-len;
#X obj 66 572 s;
#X obj 45 472 t b f f;
#X obj 425 373 print query_total_time;
#X obj 435 21 array define \$0-union;
#X obj 435 41 array define \$0-inter;
#X text 289 26 image_results -->;
#X obj 430 136 text define filenames;
#X msg 430 114 read -c ../txt/colorsounds_path_file.txt;
#X obj 431 90 loadbang;
#X text 434 65 needed to pass floats instead of symbols;
#X obj 242 190 s query_start_time;
#X obj 322 233 r query_start_time;
#X obj 346 587 route bang;
#X obj 346 609 bng 15 250 50 0 empty empty empty 17 7 0 10 -262144
-1 -1;
#X obj 43 78 list append 5011;
#X connect 0 0 3 0;
#X connect 0 1 24 0;
#X connect 1 0 0 0;
#X connect 2 0 0 0;
#X connect 4 0 8 0;
#X connect 5 0 1 0;
#X connect 6 0 16 0;
#X connect 8 0 84 0;
#X connect 9 0 8 1;
#X connect 10 0 84 1;
#X connect 11 0 0 0;
#X connect 12 0 8 0;
#X connect 13 0 67 0;
#X connect 13 1 66 0;
#X connect 14 0 15 0;
#X connect 15 0 19 0;
#X connect 16 0 2 0;
#X connect 16 1 80 0;
#X connect 17 0 18 0;
#X connect 18 0 19 1;
#X connect 19 0 20 0;
#X connect 19 0 72 0;
#X connect 24 0 31 0;
#X connect 24 1 25 0;
#X connect 24 2 13 0;
#X connect 25 0 26 0;
#X connect 26 0 27 0;
#X connect 27 0 28 0;
#X connect 28 0 43 0;
#X connect 28 1 27 1;
#X connect 30 0 37 0;
#X connect 30 1 40 0;
#X connect 30 2 60 0;
#X connect 31 0 30 0;
#X connect 33 0 34 0;
#X connect 34 0 68 0;
#X connect 34 1 35 2;
#X connect 36 0 33 0;
#X connect 37 0 71 0;
#X connect 37 1 38 0;
#X connect 38 0 36 0;
#X connect 39 0 36 0;
#X connect 40 0 71 0;
#X connect 40 1 39 0;
#X connect 41 0 56 0;
#X connect 42 0 41 0;
#X connect 43 0 45 0;
#X connect 44 0 41 0;
#X connect 45 0 46 0;
#X connect 46 0 35 0;
#X connect 46 1 82 0;
#X connect 47 0 48 0;
#X connect 48 0 49 0;
#X connect 48 1 52 0;
#X connect 49 0 50 0;
#X connect 50 0 51 0;
#X connect 50 1 51 1;
#X connect 51 0 52 0;
#X connect 52 0 57 1;
#X connect 53 0 47 0;
#X connect 54 0 55 0;
#X connect 55 0 53 0;
#X connect 56 0 27 0;
#X connect 56 1 43 1;
#X connect 57 0 58 0;
#X connect 58 0 59 0;
#X connect 60 0 44 0;
#X connect 60 1 54 0;
#X connect 64 0 63 0;
#X connect 65 0 63 0;
#X connect 66 0 14 1;
#X connect 66 1 65 0;
#X connect 67 0 14 0;
#X connect 67 1 17 1;
#X connect 67 2 64 0;
#X connect 68 0 32 1;
#X connect 68 1 69 0;
#X connect 69 0 70 1;
#X connect 71 0 42 0;
#X connect 71 1 32 0;
#X connect 71 2 70 0;
#X connect 77 0 76 0;
#X connect 78 0 77 0;
#X connect 81 0 17 0;
#X connect 82 0 83 0;
#X connect 82 1 57 0;
#X connect 84 0 11 0;
#X restore 36 298 pd live query;
#N canvas 321 142 677 477 processes_gui 0;
#X obj 173 339 f;
#X obj 188 317 r display_pid;
#X obj 121 245 r kill_display;
#X obj 173 361 sel;
#X obj 188 389 s pid_killer;
#X obj 86 48 r start_display;
#X msg 86 183 \; pid_start display;
#X obj 86 85 t b b;
#X msg 166 219 1;
#X obj 121 270 spigot;
#X msg 178 273 0;
#X obj 86 124 spigot 1;
#X obj 86 153 t b b;
#X msg 126 153 0;
#X obj 133 298 t b b b;
#X msg 86 230 1;
#X obj 478 342 f;
#X obj 478 364 sel;
#X obj 493 392 s pid_killer;
#X obj 391 88 t b b;
#X msg 471 222 1;
#X obj 426 273 spigot;
#X msg 483 276 0;
#X obj 391 127 spigot 1;
#X obj 391 156 t b b;
#X msg 431 156 0;
#X obj 438 301 t b b b;
#X msg 391 233 1;
#X obj 391 51 r start_audio;
#X msg 391 186 \; pid_start audio;
#X obj 426 248 r kill_audio;
#X obj 493 320 r audio_pid;
#X connect 0 0 3 0;
#X connect 1 0 0 1;
#X connect 2 0 9 0;
#X connect 3 1 4 0;
#X connect 5 0 7 0;
#X connect 7 0 11 0;
#X connect 7 1 8 0;
#X connect 8 0 9 1;
#X connect 9 0 14 0;
#X connect 10 0 9 1;
#X connect 11 0 12 0;
#X connect 12 0 6 0;
#X connect 12 1 13 0;
#X connect 13 0 11 1;
#X connect 14 0 15 0;
#X connect 14 1 0 0;
#X connect 14 2 10 0;
#X connect 15 0 11 1;
#X connect 16 0 17 0;
#X connect 17 1 18 0;
#X connect 19 0 23 0;
#X connect 19 1 20 0;
#X connect 20 0 21 1;
#X connect 21 0 26 0;
#X connect 22 0 21 1;
#X connect 23 0 24 0;
#X connect 24 0 29 0;
#X connect 24 1 25 0;
#X connect 25 0 23 1;
#X connect 26 0 27 0;
#X connect 26 1 16 0;
#X connect 26 2 22 0;
#X connect 27 0 23 1;
#X connect 28 0 19 0;
#X connect 30 0 21 0;
#X connect 31 0 16 1;
#X restore 153 196 pd processes_gui;
#N canvas 0 22 557 441 processes_guts 0;
#X obj 56 51 symbol;
#X msg 138 120 set \$1;
#X obj 138 142 makefilename;
#X obj 56 96 ggee/getdir;
#X obj 138 188 ggee/shell;
#X msg 138 163 /bin/bash \$1;
#X obj 138 98 makefilename %%s/../%s;
#X obj 282 204 sel;
#X obj 137 209 f;
#X obj 382 240 r display_pid;
#X obj 340 190 t a a;
#X obj 282 249 symbol;
#X obj 334 248 symbol;
#X obj 334 226 t b f;
#X obj 282 301 list;
#X obj 382 262 t f f;
#X obj 334 300 list;
#X obj 334 322 list;
#N canvas 0 22 450 300 pid_killer 0;
#X obj 113 53 r pid_killer;
#X obj 113 75 list prepend kill;
#X obj 113 97 list trim;
#X obj 114 186 outlet;
#X obj 133 145 t a a;
#X obj 238 186 outlet;
#X obj 238 140 list split 1;
#X obj 238 163 symbol;
#X connect 0 0 1 0;
#X connect 1 0 2 0;
#X connect 2 0 4 0;
#X connect 4 0 3 0;
#X connect 4 1 6 0;
#X connect 6 0 7 0;
#X connect 7 0 5 0;
#X restore 266 152 pd pid_killer;
#X obj 55 27 r pid_start;
#X obj 137 231 s;
#X obj 284 98 makefilename %s_pid;
#X obj 56 73 t b a a a, f 54;
#X obj 334 350 list prepend ERROR;
#X obj 334 378 print process_status;
#X connect 0 0 22 0;
#X connect 1 0 2 0;
#X connect 2 0 5 0;
#X connect 3 0 2 0;
#X connect 4 0 8 0;
#X connect 4 1 7 0;
#X connect 5 0 4 0;
#X connect 6 0 1 0;
#X connect 7 0 11 0;
#X connect 7 1 13 0;
#X connect 8 0 20 0;
#X connect 9 0 15 0;
#X connect 10 0 11 1;
#X connect 10 1 12 1;
#X connect 11 0 14 0;
#X connect 12 0 16 0;
#X connect 13 0 12 0;
#X connect 13 1 17 1;
#X connect 14 0 24 0;
#X connect 15 0 14 1;
#X connect 15 1 16 1;
#X connect 16 0 17 0;
#X connect 17 0 23 0;
#X connect 18 0 4 0;
#X connect 18 1 10 0;
#X connect 19 0 0 0;
#X connect 21 0 20 1;
#X connect 22 0 3 0;
#X connect 22 1 6 0;
#X connect 22 2 21 0;
#X connect 22 3 10 0;
#X connect 23 0 24 0;
#X restore 35 196 pd processes_guts;
#X text 160 155 <-- to read sorted entries;
#X text 160 119 (and make the query);
#N canvas 469 163 634 453 color_words 0;
#X msg 22 35 read ../data/colorwords.json;
#X obj 22 57 purest_json/json-encode;
#X obj 25 96 purest_json/json-decode;
#X obj 25 118 list trim;
#X obj 25 140 route data;
#X obj 25 162 purest_json/json-decode;
#X obj 25 184 list trim;
#X obj 25 206 route idlist name;
#X obj 227 124 sel;
#X obj 25 228 purest_json/json-decode;
#X obj 330 147 symbol;
#X obj 346 120 symbol;
#X obj 292 68 t b f f;
#X obj 287 19 r index;
#X obj 325 258 list prepend append;
#X obj 325 280 list trim;
#X obj 325 302 list store;
#X obj 325 324 t a b;
#X obj 369 409 s filenames_list;
#X obj 348 172 text search filenames 1;
#X obj 316 349 route bang;
#X obj 458 205 sel -1;
#X obj 459 224 text size filenames;
#X obj 460 245 t b f;
#X obj 459 268 random;
#X obj 459 290 t f;
#X connect 0 0 1 0;
#X connect 1 0 2 0;
#X connect 2 0 3 0;
#X connect 2 1 16 0;
#X connect 3 0 4 0;
#X connect 4 0 5 0;
#X connect 5 0 6 0;
#X connect 6 0 7 0;
#X connect 7 0 9 0;
#X connect 7 1 11 0;
#X connect 8 0 10 0;
#X connect 9 0 8 0;
#X connect 10 0 19 0;
#X connect 11 0 10 1;
#X connect 12 0 1 0;
#X connect 12 1 8 1;
#X connect 13 0 12 0;
#X connect 14 0 15 0;
#X connect 15 0 16 0;
#X connect 16 0 17 0;
#X connect 17 0 20 0;
#X connect 17 1 16 1;
#X connect 19 0 21 0;
#X connect 20 1 18 0;
#X connect 21 0 22 0;
#X connect 21 1 25 0;
#X connect 22 0 23 0;
#X connect 23 0 24 0;
#X connect 23 1 24 1;
#X connect 24 0 25 0;
#X connect 25 0 14 0;
#X restore 152 297 pd color_words;
#X obj 142 352 r loaded_sounds;
#X obj 142 374 print;
#X connect 19 0 20 0;
