#N canvas 551 28 401 342 12;
#X declare -lib Gem -lib timbreIDLib -path ./lib;
#X obj 30 26 declare -lib Gem -lib timbreIDLib -path ./lib;
#N canvas 0 22 450 278 (subpatch) 0;
#X array \$0-histogram 64 float 3;
#A 0 0.00797462 0.0555437 0.346424 0.264033 0.139238 0.119343 0.0368522
0.0133403 0.00878538 0.00229952 0.00142983 0.00113502 0.00137087 0.00107606
0.000810731 0.000324292 0 0 0 0 0 0 0 0 0 0 0 0 0 0 0 0 0 0 0 0 0 0
0 0 0 0 0 0 0 0 0 0 0 0 0 0 0 0 0 0 0 0 0 0 0 0 0 0;
#X coords 0 1 64 0 226 109 1 0 0;
#X restore 129 196 graph;
#X obj 28 142 tgl 15 0 vis-mean_col vis-mean_col-set vis-mean_col 17
7 0 10 -262144 -1 -1 1 1;
#X obj 28 162 tgl 15 0 vis-keypoints vis-keypoints-set vis-keypoints
17 7 0 10 -262144 -1 -1 1 1;
#X obj 28 182 tgl 15 0 vis-circles vis-circles-set vis-circles 17 7
0 10 -262144 -1 -1 1 1;
#X obj 28 202 tgl 15 0 vis-lines vis-lines-set vis-lines 17 7 0 10
-262144 -1 -1 1 1;
#X obj 28 222 tgl 15 0 vis-faces vis-faces-set vis-faces 17 7 0 10
-262144 -1 -1 1 1;
#X obj 28 242 tgl 15 0 vis-bodies vis-bodies-set vis-bodies 17 7 0
10 -262144 -1 -1 1 1;
#X obj 28 262 tgl 15 0 vis-cvblobs vis-cvblobs-set vis-cvblobs 17 7
0 10 -262144 -1 -1 1 1;
#X obj 28 288 tgl 15 0 vis-all vis-all-set vis-all 17 7 0 10 -262144
-1 -1 1 1;
#X obj 28 122 tgl 15 0 vis-image vis-image-set vis-image 17 7 0 10
-262144 -1 -1 1 1;
#X obj 132 130 nbx 5 14 -1e+37 1e+37 0 0 e-id e-id-set e-id 0 -8 0
10 -262144 -1 -1 174 256;
#X obj 189 130 nbx 5 14 -1e+37 1e+37 0 0 e-hist_q e-hist_q-set e-hist_q
0 -8 0 10 -262144 -1 -1 0.046875 256;
#X obj 247 130 nbx 5 14 -1e+37 1e+37 0 0 e-bodies e-bodies-set e-bodies
0 -8 0 10 -262144 -1 -1 0 256;
#X obj 304 130 nbx 5 14 -1e+37 1e+37 0 0 e-faces e-faces-set e-faces
0 -8 0 10 -262144 -1 -1 0 256;
#X obj 132 161 nbx 5 14 -1e+37 1e+37 0 0 e-cvblobs e-cvblobs-set e-cvblobs
0 -8 0 10 -262144 -1 -1 0 256;
#X obj 247 161 nbx 5 14 -1e+37 1e+37 0 0 e-circles e-circles-set e-circles
0 -8 0 10 -262144 -1 -1 0 256;
#X obj 189 161 nbx 5 14 -1e+37 1e+37 0 0 e-lines e-lines-set e-lines
0 -8 0 10 -262144 -1 -1 0 256;
#X obj 304 161 nbx 5 14 -1e+37 1e+37 0 0 e-keypoints e-keypoints-set
e-keypoints 0 -8 0 10 -262144 -1 -1 0 256;
#X obj 28 79 nbx 5 14 -1e+37 1e+37 0 0 get-entry get-entry-set get-entry
0 -8 0 10 -204786 -1 -1 174 256;
#N canvas 590 84 465 496 guts 0;
#N canvas 411 186 869 592 cvblobs 0;
#X obj 120 133 purest_json/json-decode;
#X floatatom 20 343 5 0 0 0 - - -;
#X floatatom 90 338 5 0 0 0 - - -;
#X obj 120 187 list trim;
#X obj 550 122 route corners;
#X obj 550 148 purest_json/json-decode;
#X floatatom 137 342 5 0 0 0 - - -;
#X floatatom 181 342 5 0 0 0 - - -;
#X floatatom 221 343 5 0 0 0 - - -;
#X floatatom 286 325 5 0 0 0 - - -;
#X floatatom 327 324 5 0 0 0 - - -;
#X floatatom 387 319 5 0 0 0 - - -;
#X floatatom 428 323 5 0 0 0 - - -;
#X floatatom 490 334 5 0 0 0 - - -;
#X floatatom 530 330 5 0 0 0 - - -;
#X obj 585 201 zexy/repack 8;
#X obj 581 298 unpack f f f f f f f f;
#X floatatom 579 330 5 0 0 0 - - -;
#X floatatom 595 352 5 0 0 0 - - -;
#X floatatom 611 374 5 0 0 0 - - -;
#X floatatom 627 396 5 0 0 0 - - -;
#X floatatom 657 331 5 0 0 0 - - -;
#X floatatom 673 353 5 0 0 0 - - -;
#X floatatom 689 375 5 0 0 0 - - -;
#X floatatom 705 397 5 0 0 0 - - -;
#X obj 567 174 f;
#X obj 404 450 pack f f f f f f f f f f f f f f f f f f f;
#X obj 106 257 route id Xcentroid Ycentroid Xcenter Ycenter length
points area angle Xsize Ysize;
#X obj 623 493 tgl 15 0 empty empty empty 17 7 0 10 -262144 -1 -1 0
1;
#X msg 623 513 all \$1;
#X obj 479 525 clone _cvblob 100;
#X obj 132 24 inlet;
#X obj 686 52 outlet;
#X floatatom 214 100 5 0 0 0 - - -;
#X obj 121 60 route cvblob blobcount blobpoints;
#X floatatom 273 106 5 0 0 0 - - -;
#X connect 0 0 3 0;
#X connect 1 0 26 0;
#X connect 2 0 26 1;
#X connect 3 0 27 0;
#X connect 4 0 5 0;
#X connect 5 0 25 0;
#X connect 6 0 26 2;
#X connect 7 0 26 3;
#X connect 8 0 26 4;
#X connect 9 0 26 5;
#X connect 10 0 26 6;
#X connect 11 0 26 7;
#X connect 12 0 26 8;
#X connect 13 0 26 9;
#X connect 14 0 26 10;
#X connect 15 0 16 0;
#X connect 16 0 17 0;
#X connect 16 1 18 0;
#X connect 16 2 19 0;
#X connect 16 3 20 0;
#X connect 16 4 21 0;
#X connect 16 5 22 0;
#X connect 16 6 23 0;
#X connect 16 7 24 0;
#X connect 17 0 26 11;
#X connect 18 0 26 12;
#X connect 19 0 26 13;
#X connect 20 0 26 14;
#X connect 21 0 26 15;
#X connect 22 0 26 16;
#X connect 23 0 26 17;
#X connect 24 0 26 18;
#X connect 25 0 15 0;
#X connect 26 0 30 0;
#X connect 27 0 1 0;
#X connect 27 1 2 0;
#X connect 27 2 6 0;
#X connect 27 3 7 0;
#X connect 27 4 8 0;
#X connect 27 5 9 0;
#X connect 27 6 10 0;
#X connect 27 7 11 0;
#X connect 27 8 12 0;
#X connect 27 9 13 0;
#X connect 27 10 14 0;
#X connect 27 11 4 0;
#X connect 28 0 29 0;
#X connect 29 0 30 1;
#X connect 31 0 34 0;
#X connect 34 0 0 0;
#X connect 34 1 33 0;
#X connect 34 2 35 0;
#X connect 34 3 32 0;
#X restore 81 406 pd cvblobs;
#N canvas 0 22 473 408 bodies 0;
#X obj 51 81 purest_json/json-decode;
#X obj 53 115 list trim;
#X floatatom 68 197 5 0 0 0 - - -;
#X floatatom 96 183 5 0 0 0 - - -;
#X floatatom 140 180 5 0 0 0 - - -;
#X obj 53 141 route id x y r;
#X floatatom 181 182 5 0 0 0 - - -;
#X obj 49 44 route bodies;
#X obj 80 228 pack f f f f;
#X obj 170 260 tgl 15 0 empty empty empty 17 7 0 10 -262144 -1 -1 0
1;
#X msg 170 280 all \$1;
#X obj 55 315 clone _bodies 20;
#X obj 50 15 inlet;
#X obj 369 343 outlet;
#X connect 0 0 1 0;
#X connect 1 0 5 0;
#X connect 2 0 8 0;
#X connect 3 0 8 1;
#X connect 4 0 8 2;
#X connect 5 0 2 0;
#X connect 5 1 3 0;
#X connect 5 2 4 0;
#X connect 5 3 6 0;
#X connect 6 0 8 3;
#X connect 7 0 0 0;
#X connect 7 1 13 0;
#X connect 8 0 11 0;
#X connect 9 0 10 0;
#X connect 10 0 11 1;
#X connect 12 0 7 0;
#X restore 81 381 pd bodies;
#N canvas 0 22 463 387 faces 0;
#X obj 85 89 purest_json/json-decode;
#X obj 87 123 list trim;
#X floatatom 90 190 5 0 0 0 - - -;
#X floatatom 130 191 5 0 0 0 - - -;
#X floatatom 174 188 5 0 0 0 - - -;
#X obj 87 149 route id x y r;
#X floatatom 215 190 5 0 0 0 - - -;
#X obj 90 58 route faces;
#X obj 122 239 pack f f f f;
#X obj 258 263 tgl 15 0 empty empty empty 17 7 0 10 -262144 -1 -1 0
1;
#X msg 258 283 all \$1;
#X obj 92 313 clone _faces 20;
#X obj 93 18 inlet;
#X obj 346 219 outlet;
#X connect 0 0 1 0;
#X connect 1 0 5 0;
#X connect 2 0 8 0;
#X connect 3 0 8 1;
#X connect 4 0 8 2;
#X connect 5 0 2 0;
#X connect 5 1 3 0;
#X connect 5 2 4 0;
#X connect 5 3 6 0;
#X connect 6 0 8 3;
#X connect 7 0 0 0;
#X connect 7 1 13 0;
#X connect 8 0 11 0;
#X connect 9 0 10 0;
#X connect 10 0 11 1;
#X connect 12 0 7 0;
#X restore 81 356 pd faces;
#N canvas 0 22 450 300 lines 0;
#X obj 92 89 purest_json/json-decode;
#X obj 94 123 list trim;
#X floatatom 93 188 5 0 0 0 - - -;
#X floatatom 137 191 5 0 0 0 - - -;
#X floatatom 181 188 5 0 0 0 - - -;
#X floatatom 222 190 5 0 0 0 - - -;
#X obj 94 149 route id x1 y1 x2 y2;
#X floatatom 272 190 5 0 0 0 - - -;
#X obj 105 55 route lines;
#X obj 137 229 pack f f f f f;
#X obj 138 263 clone _lines 20;
#X obj 109 15 inlet;
#X obj 355 146 outlet;
#X connect 0 0 1 0;
#X connect 1 0 6 0;
#X connect 2 0 9 0;
#X connect 3 0 9 1;
#X connect 4 0 9 2;
#X connect 5 0 9 3;
#X connect 6 0 2 0;
#X connect 6 1 3 0;
#X connect 6 2 4 0;
#X connect 6 3 5 0;
#X connect 6 4 7 0;
#X connect 7 0 9 4;
#X connect 8 0 0 0;
#X connect 8 1 12 0;
#X connect 9 0 10 0;
#X connect 11 0 8 0;
#X restore 81 331 pd lines;
#N canvas 0 22 450 300 circles 0;
#X obj 101 58 purest_json/json-decode;
#X obj 103 92 list trim;
#X floatatom 105 160 5 0 0 0 - - -;
#X floatatom 145 161 5 0 0 0 - - -;
#X floatatom 189 158 5 0 0 0 - - -;
#X obj 103 118 route id x y r;
#X floatatom 230 160 5 0 0 0 - - -;
#X obj 98 19 route circles;
#X obj 126 196 pack f f f f;
#X obj 113 262 clone _circles 20;
#X obj 228 207 tgl 15 0 empty empty empty 17 7 0 10 -262144 -1 -1 0
1;
#X msg 228 227 all \$1;
#X obj 281 203 tgl 15 0 empty empty empty 17 7 0 10 -262144 -1 -1 0
1;
#X msg 281 223 all \$1;
#X obj 39 12 inlet;
#X obj 324 48 outlet;
#X connect 0 0 1 0;
#X connect 1 0 5 0;
#X connect 2 0 8 0;
#X connect 3 0 8 1;
#X connect 4 0 8 2;
#X connect 5 0 2 0;
#X connect 5 1 3 0;
#X connect 5 2 4 0;
#X connect 5 3 6 0;
#X connect 6 0 8 3;
#X connect 7 0 0 0;
#X connect 7 1 15 0;
#X connect 8 0 9 0;
#X connect 10 0 11 0;
#X connect 11 0 9 1;
#X connect 12 0 13 0;
#X connect 14 0 7 0;
#X restore 81 306 pd circles;
#N canvas 516 77 708 628 keypoints 0;
#X obj 123 47 purest_json/json-decode;
#X obj 124 82 list trim;
#X obj 73 128 route id x y;
#X floatatom 35 231 5 0 0 0 - - -;
#X floatatom 123 195 5 0 0 0 - - -;
#X floatatom 167 192 5 0 0 0 - - -;
#X obj 127 17 route keypoints;
#X obj 65 275 pack f f f;
#X obj 155 300 tgl 15 0 empty empty empty 17 7 0 10 -262144 -1 -1 0
1;
#X msg 155 320 all \$1;
#X obj 35 16 inlet;
#X obj 346 56 outlet;
#X msg 274 176 \; index 49;
#X obj 513 459 f \$0;
#X msg 513 485 position \$1-keypoints;
#X obj 403 237 color 0 0 1;
#X obj 396 476 pix_texture;
#X obj 405 350 scale 2;
#X obj 410 326 translateXYZ 0 0 -2;
#X obj 402 186 gemhead -3;
#X obj 396 554 gemvertexbuffer 1024;
#X floatatom 494 351 5 0 0 0 - - -;
#X floatatom 585 287 5 0 0 0 - - -;
#X floatatom 491 291 5 0 0 0 - - -;
#X floatatom 530 287 5 0 0 0 - - -;
#X msg 272 131 \; reset bang;
#X msg 299 500 draw point;
#X obj 398 390 GEMglPointSize 4;
#X obj 401 299 rotateXYZ;
#X obj 397 126 loadbang;
#X msg 397 152 0;
#X obj 57 424 array define \$0-keypoints 200;
#X obj 501 62 tgl 15 0 empty empty empty 17 7 0 10 -262144 -1 -1 0
1;
#X obj 503 111 t f f;
#X obj 566 395 sel 1;
#X obj 523 439 bng 15 250 50 0 empty empty empty 17 7 0 10 -262144
-1 -1;
#X obj 30 183 moses 200;
#X msg 194 261 ignoring keypoints \$1;
#X text 411 86 see keypoints with gemvertexbuffer;
#X obj 56 362 clone _keypoint 200 \$0;
#X connect 0 0 1 0;
#X connect 1 0 2 0;
#X connect 2 0 36 0;
#X connect 2 1 4 0;
#X connect 2 2 5 0;
#X connect 3 0 7 0;
#X connect 4 0 7 1;
#X connect 5 0 7 2;
#X connect 6 0 0 0;
#X connect 6 1 11 0;
#X connect 7 0 39 0;
#X connect 8 0 9 0;
#X connect 9 0 39 1;
#X connect 10 0 6 0;
#X connect 13 0 14 0;
#X connect 14 0 20 0;
#X connect 15 0 28 0;
#X connect 16 0 20 0;
#X connect 17 0 27 0;
#X connect 18 0 17 0;
#X connect 19 0 15 0;
#X connect 21 0 17 1;
#X connect 22 0 18 3;
#X connect 23 0 18 1;
#X connect 24 0 18 2;
#X connect 26 0 20 0;
#X connect 27 0 16 0;
#X connect 28 0 18 0;
#X connect 29 0 30 0;
#X connect 30 0 19 0;
#X connect 32 0 33 0;
#X connect 33 0 19 0;
#X connect 33 1 34 0;
#X connect 34 0 35 0;
#X connect 35 0 13 0;
#X connect 36 0 3 0;
#X connect 36 1 37 0;
#X restore 81 280 pd keypoints;
#N canvas 502 0 743 695 mean_col 0;
#X obj 139 38 route mean_col;
#X obj 496 142 list prepend set;
#X obj 496 168 list trim;
#X msg 491 192 0.730392 0.50098 0.181863 0.05;
#X obj 94 391 gemhead -1;
#X obj 106 590 square 0.4;
#X obj 93 419 color 0 0 0 0;
#X obj 96 450 translateXYZ -3.5 3.5 0;
#X obj 69 284 loadbang;
#X msg 78 313 0;
#X msg 128 317 1;
#X obj 68 257 r reset;
#X obj 150 7 inlet;
#X obj 374 42 outlet;
#X obj 20 208 t f f;
#X obj 87 353 spigot 1;
#X obj 20 182 r vis-mean_col;
#X obj 153 63 purest_json/json-decode;
#X obj 139 97 list trim;
#X floatatom 154 179 5 0 0 0 - - -;
#X floatatom 182 165 5 0 0 0 - - -;
#X floatatom 226 162 5 0 0 0 - - -;
#X floatatom 277 154 5 0 0 0 - - -;
#X obj 166 210 pack f f f f;
#X obj 139 123 route r g b pct;
#X obj 179 367 list split 3;
#X obj 179 393 list append 1;
#X obj 107 562 translate 1 1 0 0;
#X obj 96 476 square 0.4;
#X obj 96 502 separator;
#X obj 99 529 color 0 0 1;
#X obj 298 603 square 0.4;
#X obj 299 575 translate 1 1 0 0;
#X obj 288 515 separator;
#X obj 291 542 color 0 0 1;
#X obj 456 587 square 0.4;
#X obj 457 559 translate 1 1 0 0;
#X obj 446 499 separator;
#X obj 449 526 color 0 0 1;
#X obj 599 584 square 0.4;
#X obj 600 556 translate 1 1 0 0;
#X obj 589 496 separator;
#X obj 592 523 color 0 0 1;
#X obj 411 99 r reset;
#X obj 255 278 list prepend;
#X obj 166 236 t b a;
#X obj 184 475 list split 3;
#X obj 184 501 list append 1;
#X obj 357 482 list split 3;
#X obj 357 508 list append 1;
#X obj 512 465 list split 3;
#X obj 514 493 list append 1;
#X obj 630 440 list split 3;
#X obj 630 466 list append 1;
#X obj 255 304 route 0 1 2 3 4;
#X obj 274 181 * 1;
#X msg 411 125 1;
#X obj 353 169 counter -m 5;
#X msg 558 274 \; index 4;
#X connect 0 0 17 0;
#X connect 0 1 13 0;
#X connect 1 0 2 0;
#X connect 2 0 3 0;
#X connect 4 0 6 0;
#X connect 5 0 33 0;
#X connect 6 0 7 0;
#X connect 7 0 28 0;
#X connect 8 0 9 0;
#X connect 9 0 15 0;
#X connect 10 0 15 0;
#X connect 11 0 9 0;
#X connect 12 0 0 0;
#X connect 14 0 4 0;
#X connect 14 1 15 1;
#X connect 15 0 4 0;
#X connect 16 0 14 0;
#X connect 17 0 18 0;
#X connect 17 1 57 0;
#X connect 18 0 24 0;
#X connect 19 0 23 0;
#X connect 20 0 23 1;
#X connect 21 0 23 2;
#X connect 22 0 55 0;
#X connect 23 0 45 0;
#X connect 24 0 19 0;
#X connect 24 1 20 0;
#X connect 24 2 21 0;
#X connect 24 3 22 0;
#X connect 25 0 26 0;
#X connect 25 1 28 1;
#X connect 26 0 6 1;
#X connect 27 0 5 0;
#X connect 28 0 29 0;
#X connect 29 0 30 0;
#X connect 30 0 27 0;
#X connect 31 0 37 0;
#X connect 32 0 31 0;
#X connect 33 0 34 0;
#X connect 34 0 32 0;
#X connect 35 0 41 0;
#X connect 36 0 35 0;
#X connect 37 0 38 0;
#X connect 38 0 36 0;
#X connect 40 0 39 0;
#X connect 41 0 42 0;
#X connect 42 0 40 0;
#X connect 43 0 56 0;
#X connect 44 0 54 0;
#X connect 45 0 10 0;
#X connect 45 1 44 0;
#X connect 46 0 47 0;
#X connect 46 1 5 1;
#X connect 47 0 30 1;
#X connect 48 0 49 0;
#X connect 48 1 31 1;
#X connect 49 0 34 1;
#X connect 50 0 51 0;
#X connect 50 1 35 1;
#X connect 51 0 38 1;
#X connect 52 0 53 0;
#X connect 52 1 39 1;
#X connect 53 0 42 1;
#X connect 54 0 25 0;
#X connect 54 1 46 0;
#X connect 54 2 48 0;
#X connect 54 3 50 0;
#X connect 54 4 52 0;
#X connect 55 0 23 3;
#X connect 56 0 57 0;
#X connect 57 0 44 1;
#X restore 81 254 pd mean_col;
#N canvas 0 22 450 300 histo 0;
#X obj 81 65 route histo;
#X obj 86 100 purest_json/json-decode;
#X obj 87 124 f;
#X obj 88 161 zexy/repack 64;
#X obj 90 210 s \$0-histogram;
#X obj 89 185 list prepend 0;
#X obj 65 19 inlet;
#X obj 315 174 outlet;
#X connect 0 0 1 0;
#X connect 0 1 7 0;
#X connect 1 0 2 0;
#X connect 2 0 3 0;
#X connect 3 0 5 0;
#X connect 5 0 4 0;
#X connect 6 0 0 0;
#X restore 81 228 pd histo;
#N canvas 0 22 567 697 image 0;
#X obj 81 170 gemhead;
#X obj 81 226 pix_image;
#X obj 92 584 pix_texture;
#X obj 420 101 loadbang;
#X obj 91 616 rectangle 4 3;
#X obj 198 436 pix_crop, f 15;
#X obj 255 296 text;
#X msg 256 271 read ../txt/roi.txt \, bang;
#X msg 256 345 0;
#X obj 255 371 text get -s text t;
#X obj 255 322 t b p;
#X obj 254 399 unpack f f f f;
#X obj 91 491 pix_info, f 17;
#X obj 107 524 pack;
#X obj 107 550 s dimensions;
#X obj 89 389 spigot 1;
#X obj 198 398 spigot;
#X obj 150 309 ==;
#X obj 149 252 r roi-flag;
#X obj 150 277 t f f f;
#X obj 256 244 sel 1;
#X obj 79 275 t a a;
#X msg 420 127 \; vis-image-set 0;
#X obj 31 38 inlet;
#X obj 79 121 r vis-image;
#X connect 0 0 1 0;
#X connect 1 0 21 0;
#X connect 2 0 4 0;
#X connect 3 0 22 0;
#X connect 5 0 12 0;
#X connect 6 0 10 0;
#X connect 7 0 6 0;
#X connect 8 0 9 0;
#X connect 9 0 11 0;
#X connect 10 0 8 0;
#X connect 10 1 9 3;
#X connect 11 0 5 1;
#X connect 11 1 5 2;
#X connect 11 2 5 3;
#X connect 11 3 5 4;
#X connect 12 0 2 0;
#X connect 12 1 13 0;
#X connect 12 2 13 1;
#X connect 13 0 14 0;
#X connect 15 0 12 0;
#X connect 16 0 5 0;
#X connect 17 0 15 1;
#X connect 18 0 19 0;
#X connect 19 0 17 0;
#X connect 19 1 16 1;
#X connect 19 2 20 0;
#X connect 20 0 7 0;
#X connect 21 0 15 0;
#X connect 21 1 16 0;
#X connect 23 0 1 0;
#X connect 24 0 0 0;
#X restore 35 441 pd image;
#X msg 35 55 list images i img \; roi-flag 0;
#X msg 202 57 list videos v-0 vid \; roi-flag 1;
#X obj 35 28 loadbang;
#X obj 35 118 t a a;
#N canvas 0 22 598 533 data 0;
#X obj 55 224 purest_json/json-encode;
#X obj 55 250 purest_json/json-decode;
#X obj 55 276 list trim;
#X obj 70 319 route id;
#X obj 84 105 s reset;
#X obj 53 77 t f b;
#X obj 70 346 change;
#X obj 53 133 list append images;
#X obj 300 58 list split 1;
#X obj 69 375 list append i img;
#X msg 56 163 symbol ../txt/\$2-\$1-data.json;
#X obj 52 31 r index;
#X obj 247 497 outlet;
#X obj 68 488 outlet;
#X msg 69 403 open ../\$3/\$2-\$1.jpg;
#X obj 305 32 inlet;
#X text 287 237 <-- load data file from index;
#X msg 56 194 read \$1 \, bang \, bang;
#X connect 0 0 1 0;
#X connect 1 0 2 0;
#X connect 2 0 3 0;
#X connect 3 0 6 0;
#X connect 3 1 12 0;
#X connect 5 0 7 0;
#X connect 5 1 4 0;
#X connect 6 0 9 0;
#X connect 7 0 10 0;
#X connect 8 0 7 1;
#X connect 8 1 9 1;
#X connect 9 0 14 0;
#X connect 10 0 17 0;
#X connect 11 0 5 0;
#X connect 14 0 13 0;
#X connect 15 0 8 0;
#X connect 17 0 0 0;
#X restore 35 191 pd data;
#X text 101 190 <-- load data file from index;
#N canvas 424 136 567 491 gui 0;
#X msg 115 48 0;
#X obj 40 89 text get \$0-entries;
#X msg 41 264 \; e-id-set \$1 \; e-hist_q-set \$2 \; e-bodies-set \$3
\; e-faces-set \$4 \; e-cvblobs-set \$5 \; e-lines-set \$6 \; e-circles-set
\$7 \; e-keypoints-set \$8;
#X obj 37 15 r get-entry;
#X obj 39 44 moses;
#X obj 135 16 r e-size;
#X obj 40 115 t a a;
#X obj 93 134 list length;
#X obj 41 168 list prepend;
#X obj 41 194 route 8 4;
#X obj 77 225 list append 0 0 0 0;
#X obj 241 148 symbol;
#X obj 243 41 t b f;
#X obj 243 180 list append;
#X msg 248 214 \; vis-\$1-set \$2;
#X obj 243 15 r vis-all;
#X msg 239 83 mean_col \, keypoints \, circles \, lines \, faces \,
bodies \, cvblobs \, image, f 28;
#X obj 246 281 r make_gemwin;
#X obj 246 307 sel;
#X msg 246 333 destroy;
#X msg 314 332 create;
#X obj 359 283 r render;
#X obj 246 359 s gemwin;
#X connect 0 0 1 0;
#X connect 1 0 6 0;
#X connect 3 0 4 0;
#X connect 4 0 1 0;
#X connect 5 0 4 1;
#X connect 6 0 8 0;
#X connect 6 1 7 0;
#X connect 7 0 8 1;
#X connect 8 0 9 0;
#X connect 9 0 2 0;
#X connect 9 1 10 0;
#X connect 10 0 2 0;
#X connect 11 0 13 0;
#X connect 12 0 16 0;
#X connect 12 1 13 1;
#X connect 13 0 14 0;
#X connect 15 0 12 0;
#X connect 16 0 11 0;
#X connect 17 0 18 0;
#X connect 18 0 19 0;
#X connect 18 1 20 0;
#X connect 19 0 22 0;
#X connect 20 0 22 0;
#X connect 21 0 22 0;
#X restore 231 441 pd gui glue;
#N canvas 0 22 450 300 entries 0;
#X obj 77 78 text define \$0-entries;
#X msg 76 51 read -c ../txt/\$1-entries.txt \, bang;
#X obj 77 104 t b;
#X obj 77 130 text size \$0-entries;
#X obj 77 156 s e-size;
#X obj 79 23 inlet;
#X connect 0 0 2 0;
#X connect 1 0 0 0;
#X connect 2 0 3 0;
#X connect 3 0 4 0;
#X connect 5 0 1 0;
#X restore 67 153 pd entries;
#X text 152 152 <-- load entries file;
#X text 226 315 <-- visualizers;
#X text 207 254 ||||||||, f 1;
#X obj 318 161 r get-entry;
#X obj 318 187 s index;
#X obj 316 262 gemwin;
#X obj 316 234 r gemwin;
#X connect 1 0 0 0;
#X connect 2 0 1 0;
#X connect 3 0 2 0;
#X connect 4 0 3 0;
#X connect 5 0 4 0;
#X connect 6 0 5 0;
#X connect 7 0 6 0;
#X connect 9 0 12 0;
#X connect 10 0 12 0;
#X connect 11 0 9 0;
#X connect 12 0 13 0;
#X connect 12 1 16 0;
#X connect 13 0 8 0;
#X connect 13 1 7 0;
#X connect 20 0 21 0;
#X connect 23 0 22 0;
#X restore 302 71 pd guts;
#X obj 134 74 tgl 15 0 make_gemwin make_gemwin-set make_gemwin 17 7
0 10 -262144 -1 -1 0 1;
#X obj 228 74 tgl 15 0 render render-set render 17 7 0 10 -262144 -1
-1 0 1;
