#N canvas 693 59 450 300 10;
#X declare -lib Gem;
#X obj 338 14 declare -lib Gem;
#X obj 25 54 gemwin;
#X obj 46 143 gemhead;
#X obj 46 165 pix_image;
#X msg 130 103 open \$1;
#X obj 125 59 bng 15 250 50 0 empty empty empty 17 7 0 10 -262144 -1
-1;
#X obj 125 79 openpanel;
#X obj 113 207 pix_crop;
#X obj 113 229 pix_texture;
#X obj 113 251 rectangle 4 3;
#X msg 17 26 create \, 1;
#X msg 107 23 0 \, destroy;
#X floatatom 350 81 5 0 0 0 - - -;
#X obj 350 102 t b f;
#X floatatom 311 81 5 0 0 0 - - -;
#X obj 311 102 t b f;
#X floatatom 273 81 5 0 0 0 - - -;
#X obj 273 102 t b f;
#X floatatom 234 82 5 0 0 0 - - -;
#X obj 234 103 f;
#X obj 316 190 pack f f f f;
#X obj 316 212 t a b;
#X msg 342 240 0;
#X obj 316 276 text set roi;
#X obj 270 48 text define roi;
#X msg 202 20 write ../txt/roi.txt;
#X connect 2 0 3 0;
#X connect 3 0 7 0;
#X connect 4 0 3 0;
#X connect 5 0 6 0;
#X connect 6 0 4 0;
#X connect 7 0 8 0;
#X connect 8 0 9 0;
#X connect 10 0 1 0;
#X connect 11 0 1 0;
#X connect 12 0 13 0;
#X connect 13 0 19 0;
#X connect 13 1 20 3;
#X connect 13 1 7 4;
#X connect 14 0 15 0;
#X connect 15 0 19 0;
#X connect 15 1 20 2;
#X connect 15 1 7 3;
#X connect 16 0 17 0;
#X connect 17 0 19 0;
#X connect 17 1 20 1;
#X connect 17 1 7 2;
#X connect 18 0 19 0;
#X connect 19 0 20 0;
#X connect 19 0 7 1;
#X connect 20 0 21 0;
#X connect 21 0 23 0;
#X connect 21 1 22 0;
#X connect 22 0 23 1;
#X connect 25 0 24 0;
